<svg xmlns="http://www.w3.org/2000/svg" viewBox="0 0 1180 440" font-family="system-ui, 'PingFang SC', 'Noto Sans CJK SC', 'Microsoft YaHei', sans-serif">
<defs>
  <marker id="arrow" viewBox="0 0 10 10" refX="9" refY="5" markerWidth="7" markerHeight="7" orient="auto-start-reverse">
    <path d="M0,0 L10,5 L0,10 z" fill="#5c666d"/>
  </marker>
</defs>
<rect x="0" y="0" width="1180" height="440" fill="#f4f5f2"/>
<text x="28" y="34" font-size="17" font-weight="700" fill="#22282c">记账本 · 页面流程图 (User Flow)</text>
<text x="28" y="52" font-size="11.5" fill="#5c666d">底部导航 4 tab 互通(绿虚线);实线=前进跳转,浅虚线=返回。基于当前实现的页面路由。</text>
<line x1="503.0" y1="50.2" x2="227.0" y2="101.7" stroke="#5c666d" stroke-width="1.6"  marker-end="url(#arrow)"/>
<line x1="545.1" y1="57.0" x2="478.8" y2="91.0" stroke="#5c666d" stroke-width="1.6"  marker-end="url(#arrow)"/>
<line x1="637.7" y1="57.0" x2="708.2" y2="91.0" stroke="#5c666d" stroke-width="1.6"  marker-end="url(#arrow)"/>
<line x1="677.0" y1="49.5" x2="973.0" y2="102.3" stroke="#5c666d" stroke-width="1.6"  marker-end="url(#arrow)"/>
<line x1="227.0" y1="116.0" x2="353.0" y2="116.0" stroke="#2f7a68" stroke-width="1.4" stroke-dasharray="3 3" marker-start="url(#arrow)" marker-end="url(#arrow)"/>
<line x1="507.0" y1="116.0" x2="683.0" y2="116.0" stroke="#2f7a68" stroke-width="1.4" stroke-dasharray="3 3" marker-start="url(#arrow)" marker-end="url(#arrow)"/>
<rect x="555.0" y="107.0" width="80" height="16" rx="3" fill="#ffffff" opacity="0.92"/><text x="595.0" y="119.0" font-size="11" fill="#5c666d" text-anchor="middle">底部导航互通</text>
<line x1="837.0" y1="116.0" x2="973.0" y2="116.0" stroke="#2f7a68" stroke-width="1.4" stroke-dasharray="3 3" marker-start="url(#arrow)" marker-end="url(#arrow)"/>
<line x1="136.1" y1="141.0" x2="103.9" y2="199.0" stroke="#5c666d" stroke-width="1.6"  marker-end="url(#arrow)"/>
<rect x="104.0" y="161.0" width="32" height="16" rx="3" fill="#ffffff" opacity="0.92"/><text x="120.0" y="173.0" font-size="11" fill="#5c666d" text-anchor="middle">导入</text>
<line x1="90.0" y1="249.0" x2="90.0" y2="291.0" stroke="#5c666d" stroke-width="1.6"  marker-end="url(#arrow)"/>
<rect x="74.0" y="261.0" width="32" height="16" rx="3" fill="#ffffff" opacity="0.92"/><text x="90.0" y="273.0" font-size="11" fill="#5c666d" text-anchor="middle">识别</text>
<line x1="97.5" y1="291.0" x2="142.5" y2="141.0" stroke="#aab2ad" stroke-width="1.3" stroke-dasharray="5 4" marker-end="url(#arrow)"/>
<line x1="175.0" y1="141.0" x2="233.0" y2="199.0" stroke="#5c666d" stroke-width="1.6"  marker-end="url(#arrow)"/>
<rect x="182.0" y="161.0" width="44" height="16" rx="3" fill="#ffffff" opacity="0.92"/><text x="204.0" y="173.0" font-size="11" fill="#5c666d" text-anchor="middle">点条目</text>
<line x1="233.0" y1="199.0" x2="175.0" y2="141.0" stroke="#aab2ad" stroke-width="1.3" stroke-dasharray="5 4" marker-end="url(#arrow)"/>
<line x1="163.5" y1="141.0" x2="244.5" y2="291.0" stroke="#5c666d" stroke-width="1.6"  marker-end="url(#arrow)"/>
<rect x="170.0" y="207.0" width="68" height="16" rx="3" fill="#ffffff" opacity="0.92"/><text x="204.0" y="219.0" font-size="11" fill="#5c666d" text-anchor="middle">编辑·多选</text>
<line x1="244.5" y1="291.0" x2="163.5" y2="141.0" stroke="#aab2ad" stroke-width="1.3" stroke-dasharray="5 4" marker-end="url(#arrow)"/>
<line x1="353.0" y1="116.0" x2="227.0" y2="116.0" stroke="#aab2ad" stroke-width="1.3" stroke-dasharray="5 4" marker-end="url(#arrow)"/>
<line x1="430.0" y1="141.0" x2="430.0" y2="199.0" stroke="#5c666d" stroke-width="1.6"  marker-end="url(#arrow)"/>
<rect x="414.0" y="161.0" width="32" height="16" rx="3" fill="#ffffff" opacity="0.92"/><text x="430.0" y="173.0" font-size="11" fill="#5c666d" text-anchor="middle">拍照</text>
<line x1="430.0" y1="199.0" x2="430.0" y2="141.0" stroke="#aab2ad" stroke-width="1.3" stroke-dasharray="5 4" marker-end="url(#arrow)"/>
<line x1="742.9" y1="141.0" x2="703.1" y2="199.0" stroke="#5c666d" stroke-width="1.6"  marker-end="url(#arrow)"/>
<rect x="695.0" y="161.0" width="56" height="16" rx="3" fill="#ffffff" opacity="0.92"/><text x="723.0" y="173.0" font-size="11" fill="#5c666d" text-anchor="middle">导入持仓</text>
<line x1="686.0" y1="249.0" x2="686.0" y2="291.0" stroke="#5c666d" stroke-width="1.6"  marker-end="url(#arrow)"/>
<rect x="670.0" y="261.0" width="32" height="16" rx="3" fill="#ffffff" opacity="0.92"/><text x="686.0" y="273.0" font-size="11" fill="#5c666d" text-anchor="middle">识别</text>
<line x1="695.3" y1="291.0" x2="750.8" y2="141.0" stroke="#aab2ad" stroke-width="1.3" stroke-dasharray="5 4" marker-end="url(#arrow)"/>
<line x1="782.7" y1="141.0" x2="835.3" y2="199.0" stroke="#5c666d" stroke-width="1.6"  marker-end="url(#arrow)"/>
<rect x="787.0" y="161.0" width="44" height="16" rx="3" fill="#ffffff" opacity="0.92"/><text x="809.0" y="173.0" font-size="11" fill="#5c666d" text-anchor="middle">点基金</text>
<line x1="858.0" y1="249.0" x2="858.0" y2="291.0" stroke="#5c666d" stroke-width="1.6"  marker-end="url(#arrow)"/>
<rect x="824.0" y="261.0" width="68" height="16" rx="3" fill="#ffffff" opacity="0.92"/><text x="858.0" y="273.0" font-size="11" fill="#5c666d" text-anchor="middle">补录/修正</text>
<line x1="858.0" y1="291.0" x2="858.0" y2="249.0" stroke="#aab2ad" stroke-width="1.3" stroke-dasharray="5 4" marker-end="url(#arrow)"/>
<line x1="772.3" y1="141.0" x2="845.8" y2="291.0" stroke="#5c666d" stroke-width="1.6"  marker-end="url(#arrow)"/>
<rect x="787.0" y="207.0" width="44" height="16" rx="3" fill="#ffffff" opacity="0.92"/><text x="809.0" y="219.0" font-size="11" fill="#5c666d" text-anchor="middle">手动记</text>
<line x1="1050.0" y1="141.0" x2="1050.0" y2="188.0" stroke="#5c666d" stroke-width="1.6"  marker-end="url(#arrow)"/>
<line x1="1050.0" y1="141.0" x2="1050.0" y2="254.0" stroke="#5c666d" stroke-width="1.6"  marker-end="url(#arrow)"/>
<line x1="1050.0" y1="141.0" x2="1050.0" y2="320.0" stroke="#5c666d" stroke-width="1.6"  marker-end="url(#arrow)"/>
<rect x="505" y="13" width="170" height="42" rx="9" fill="#22282c" stroke="none" stroke-width="1.4" />
<text x="590" y="38" font-size="14" font-weight="600" fill="#ffffff" text-anchor="middle">记账本 App</text>
<rect x="75" y="93" width="150" height="46" rx="9" fill="#2f7a68" stroke="none" stroke-width="1.4" />
<text x="150" y="113" font-size="14" font-weight="600" fill="#ffffff" text-anchor="middle">流水首页</text>
<text x="150" y="129" font-size="10.5" fill="#d7e7e1" text-anchor="middle" font-family="ui-monospace, monospace">/</text>
<rect x="355" y="93" width="150" height="46" rx="9" fill="#2f7a68" stroke="none" stroke-width="1.4" />
<text x="430" y="113" font-size="14" font-weight="600" fill="#ffffff" text-anchor="middle">记一笔</text>
<text x="430" y="129" font-size="10.5" fill="#d7e7e1" text-anchor="middle" font-family="ui-monospace, monospace">/record</text>
<rect x="685" y="93" width="150" height="46" rx="9" fill="#2f7a68" stroke="none" stroke-width="1.4" />
<text x="760" y="113" font-size="14" font-weight="600" fill="#ffffff" text-anchor="middle">基金</text>
<text x="760" y="129" font-size="10.5" fill="#d7e7e1" text-anchor="middle" font-family="ui-monospace, monospace">/funds</text>
<rect x="975" y="93" width="150" height="46" rx="9" fill="#2f7a68" stroke="none" stroke-width="1.4" />
<text x="1050" y="113" font-size="14" font-weight="600" fill="#ffffff" text-anchor="middle">我的</text>
<text x="1050" y="129" font-size="10.5" fill="#d7e7e1" text-anchor="middle" font-family="ui-monospace, monospace">/me</text>
<rect x="16" y="201" width="148" height="46" rx="9" fill="#ffffff" stroke="#c6ccc9" stroke-width="1.4" />
<text x="90" y="221" font-size="14" font-weight="600" fill="#22282c" text-anchor="middle">OCR 导入</text>
<text x="90" y="237" font-size="10.5" fill="#5c666d" text-anchor="middle" font-family="ui-monospace, monospace">/import</text>
<rect x="16" y="293" width="148" height="46" rx="9" fill="#eef2f0" stroke="#c6ccc9" stroke-width="1.4" />
<text x="90" y="313" font-size="14" font-weight="600" fill="#22282c" text-anchor="middle">待确认清单</text>
<text x="90" y="329" font-size="10.5" fill="#5c666d" text-anchor="middle" font-family="ui-monospace, monospace">校对后入账</text>
<rect x="184" y="201" width="148" height="46" rx="9" fill="#ffffff" stroke="#c6ccc9" stroke-width="1.4" />
<text x="258" y="221" font-size="14" font-weight="600" fill="#22282c" text-anchor="middle">编辑账目</text>
<text x="258" y="237" font-size="10.5" fill="#5c666d" text-anchor="middle" font-family="ui-monospace, monospace">/record?id=</text>
<rect x="184" y="293" width="148" height="46" rx="9" fill="#eef2f0" stroke="#c6ccc9" stroke-width="1.4" />
<text x="258" y="313" font-size="14" font-weight="600" fill="#22282c" text-anchor="middle">批量修改</text>
<text x="258" y="329" font-size="10.5" fill="#5c666d" text-anchor="middle" font-family="ui-monospace, monospace">多选·撤销</text>
<rect x="356" y="201" width="148" height="46" rx="9" fill="#eef2f0" stroke="#c6ccc9" stroke-width="1.4" />
<text x="430" y="221" font-size="14" font-weight="600" fill="#22282c" text-anchor="middle">拍照 OCR 单张</text>
<text x="430" y="237" font-size="10.5" fill="#5c666d" text-anchor="middle" font-family="ui-monospace, monospace">回填记一笔</text>
<rect x="611" y="201" width="150" height="46" rx="9" fill="#ffffff" stroke="#c6ccc9" stroke-width="1.4" />
<text x="686" y="221" font-size="14" font-weight="600" fill="#22282c" text-anchor="middle">导入持仓截图</text>
<text x="686" y="237" font-size="10.5" fill="#5c666d" text-anchor="middle" font-family="ui-monospace, monospace">/funds/import</text>
<rect x="611" y="293" width="150" height="46" rx="9" fill="#eef2f0" stroke="#c6ccc9" stroke-width="1.4" />
<text x="686" y="313" font-size="14" font-weight="600" fill="#22282c" text-anchor="middle">待确认清单</text>
<text x="686" y="329" font-size="10.5" fill="#5c666d" text-anchor="middle" font-family="ui-monospace, monospace">校对后入账</text>
<rect x="783" y="201" width="150" height="46" rx="9" fill="#ffffff" stroke="#c6ccc9" stroke-width="1.4" />
<text x="858" y="221" font-size="14" font-weight="600" fill="#22282c" text-anchor="middle">基金详情</text>
<text x="858" y="237" font-size="10.5" fill="#5c666d" text-anchor="middle" font-family="ui-monospace, monospace">/funds/[code]</text>
<rect x="783" y="293" width="150" height="46" rx="9" fill="#ffffff" stroke="#c6ccc9" stroke-width="1.4" />
<text x="858" y="313" font-size="14" font-weight="600" fill="#22282c" text-anchor="middle">手动记/补录</text>
<text x="858" y="329" font-size="10.5" fill="#5c666d" text-anchor="middle" font-family="ui-monospace, monospace">/funds/new</text>
<rect x="975" y="190" width="150" height="40" rx="9" fill="#ffffff" stroke="#c6ccc9" stroke-width="1.4" />
<text x="1050" y="214" font-size="14" font-weight="600" fill="#22282c" text-anchor="middle">导出 CSV</text>
<rect x="975" y="256" width="150" height="40" rx="9" fill="#ffffff" stroke="#c6ccc9" stroke-width="1.4" />
<text x="1050" y="280" font-size="14" font-weight="600" fill="#22282c" text-anchor="middle">分类/账户管理</text>
<rect x="975" y="322" width="150" height="40" rx="9" fill="#ffffff" stroke="#d9a441" stroke-width="1.4" stroke-dasharray="4 3"/>
<text x="1050" y="339" font-size="14" font-weight="600" fill="#8a6d3b" text-anchor="middle">推荐功能</text>
<text x="1050" y="355" font-size="10.5" fill="#b08a4a" text-anchor="middle" font-family="ui-monospace, monospace">P2 占位</text>

<g font-size="11" fill="#5c666d">
  <rect x="28" y="404" width="16" height="12" rx="3" fill="#2f7a68"/><text x="50" y="414">底部导航 tab</text>
  <rect x="150" y="404" width="16" height="12" rx="3" fill="#ffffff" stroke="#c6ccc9"/><text x="172" y="414">功能页</text>
  <rect x="240" y="404" width="16" height="12" rx="3" fill="#eef2f0" stroke="#c6ccc9"/><text x="262" y="414">流程/中间态</text>
  <rect x="360" y="404" width="16" height="12" rx="3" fill="#ffffff" stroke="#d9a441" stroke-dasharray="4 3"/><text x="382" y="414">P2 占位</text>
</g>
</svg>